<svg id="svg" version="1.1" xmlns="http://www.w3.org/2000/svg" xmlns:xlink="http://www.w3.org/1999/xlink" width="400" height="400" viewBox="0, 0, 400,400"><g id="svgg"><path id="path0" d="M299.763 79.494 C 299.255 80.003,299.238 80.186,299.670 80.496 C 300.078 80.788,300.053 80.829,299.562 80.674 C 299.121 80.535,291.753 87.645,275.662 103.738 C 251.300 128.102,251.311 128.090,253.100 129.622 C 253.823 130.241,254.673 130.418,254.505 129.914 C 254.452 129.757,254.682 129.733,255.015 129.861 C 255.458 130.031,255.506 130.231,255.194 130.608 C 254.873 130.994,255.061 131.331,255.949 131.964 C 256.815 132.580,257.186 132.671,257.334 132.303 C 257.446 132.026,257.551 132.229,257.568 132.753 C 257.602 133.757,260.327 136.892,260.873 136.555 C 261.048 136.447,261.102 136.593,260.993 136.879 C 260.884 137.166,261.515 138.210,262.395 139.200 C 264.403 141.460,264.404 141.460,265.963 143.613 C 266.675 144.596,267.470 145.408,267.729 145.418 C 267.988 145.428,268.156 145.649,268.103 145.909 C 267.960 146.606,269.437 149.016,269.939 148.905 C 270.177 148.852,270.278 149.053,270.163 149.352 C 269.869 150.119,272.084 153.653,272.709 153.413 C 273.094 153.266,273.119 153.404,272.810 153.981 C 272.481 154.596,272.596 154.896,273.404 155.532 C 274.041 156.033,274.316 156.553,274.160 156.960 C 274.025 157.312,274.114 157.600,274.357 157.600 C 274.601 157.600,274.800 157.390,274.800 157.133 C 274.800 156.877,274.916 156.782,275.057 156.924 C 275.198 157.065,275.072 157.472,274.776 157.829 C 274.320 158.378,274.336 158.532,274.882 158.838 C 275.299 159.072,275.446 159.503,275.299 160.067 C 275.124 160.733,275.215 160.880,275.687 160.699 C 276.415 160.419,277.210 161.104,277.175 161.980 C 277.160 162.335,276.986 162.191,276.766 161.642 C 276.254 160.362,275.821 160.867,276.218 162.281 C 276.390 162.897,276.492 163.565,276.443 163.768 C 276.395 163.970,276.603 163.929,276.907 163.677 C 277.359 163.302,277.428 163.427,277.291 164.362 C 277.199 164.991,277.304 165.617,277.524 165.753 C 277.763 165.901,277.841 165.678,277.716 165.201 C 277.599 164.753,277.704 164.400,277.953 164.400 C 278.555 164.400,278.523 166.117,277.910 166.730 C 277.523 167.117,277.523 167.385,277.910 168.005 C 278.180 168.436,278.400 169.152,278.400 169.595 C 278.400 170.083,278.676 170.412,279.100 170.432 C 279.485 170.449,279.594 170.548,279.342 170.651 C 278.845 170.855,279.088 172.400,279.617 172.400 C 279.796 172.400,280.024 172.085,280.124 171.700 C 280.258 171.188,280.320 171.249,280.354 171.926 C 280.379 172.436,280.573 173.176,280.785 173.571 C 281.054 174.074,280.999 174.516,280.604 175.045 C 280.067 175.763,280.051 175.756,280.267 174.900 C 280.391 174.405,280.321 174.000,280.111 174.000 C 279.703 174.000,279.767 175.213,280.312 177.800 C 280.500 178.691,280.860 179.356,281.125 179.300 C 281.386 179.245,281.600 179.549,281.600 179.976 C 281.600 180.403,281.754 180.848,281.943 180.965 C 282.342 181.211,282.780 188.393,282.842 195.682 C 282.868 198.819,283.060 200.990,283.342 201.355 C 283.927 202.112,291.200 202.757,291.200 202.052 C 291.200 201.803,290.990 201.600,290.733 201.600 C 290.477 201.600,290.375 201.492,290.507 201.359 C 290.640 201.227,291.160 201.407,291.663 201.759 C 292.223 202.151,292.357 202.400,292.009 202.400 C 291.578 202.400,291.552 202.512,291.903 202.863 C 292.158 203.118,293.493 203.342,294.869 203.361 C 296.245 203.379,297.061 203.454,296.681 203.528 C 295.738 203.709,296.238 204.397,297.324 204.413 C 297.806 204.420,298.549 204.690,298.976 205.013 C 299.404 205.336,300.079 205.600,300.476 205.600 C 300.874 205.600,301.200 205.810,301.200 206.067 C 301.200 206.323,301.314 206.419,301.454 206.280 C 301.593 206.140,302.157 206.380,302.708 206.813 C 303.993 207.824,305.273 207.874,304.924 206.900 C 304.786 206.515,304.805 206.319,304.966 206.463 C 305.128 206.608,305.297 206.968,305.341 207.263 C 305.556 208.683,306.795 209.391,306.806 208.100 C 306.811 207.512,306.872 207.494,307.185 207.989 C 307.431 208.378,307.394 208.687,307.079 208.897 C 306.735 209.125,306.821 209.344,307.384 209.674 C 308.206 210.156,315.789 217.654,315.803 218.000 C 315.867 219.517,318.941 223.243,319.351 222.300 C 319.470 222.025,319.459 222.322,319.326 222.960 C 319.178 223.665,319.235 224.025,319.471 223.880 C 319.685 223.748,319.846 224.036,319.830 224.520 C 319.813 225.004,319.995 225.365,320.233 225.322 C 320.472 225.279,320.667 225.497,320.667 225.805 C 320.667 226.113,320.493 226.258,320.281 226.127 C 320.070 225.996,319.979 226.139,320.081 226.444 C 320.183 226.750,320.588 227.062,320.981 227.138 C 321.485 227.236,321.603 227.119,321.383 226.738 C 321.212 226.442,321.226 226.340,321.414 226.512 C 321.999 227.044,321.958 228.000,321.351 228.000 C 320.902 228.000,320.865 228.174,321.186 228.774 C 321.414 229.199,321.600 230.009,321.600 230.574 C 321.600 232.054,322.320 231.838,322.511 230.300 C 322.669 229.020,322.673 229.023,322.736 230.500 C 322.771 231.325,322.645 232.000,322.455 232.000 C 322.265 232.000,322.137 232.405,322.171 232.900 C 322.205 233.395,322.405 233.770,322.616 233.733 C 323.241 233.624,323.118 248.924,322.492 249.325 C 322.212 249.503,322.092 249.826,322.226 250.042 C 322.360 250.258,322.248 250.702,321.977 251.027 C 321.363 251.767,321.791 252.272,322.520 251.667 C 322.958 251.303,323.023 251.461,322.869 252.509 C 322.713 253.573,322.632 253.660,322.403 253.008 C 322.132 252.237,322.114 252.239,321.664 253.080 C 321.279 253.800,321.318 253.972,321.901 254.125 C 322.425 254.262,322.375 254.319,321.700 254.354 C 320.695 254.405,320.473 255.509,321.300 256.347 C 321.701 256.753,321.662 256.956,321.106 257.366 C 320.725 257.648,320.545 258.035,320.706 258.226 C 320.868 258.417,320.707 258.351,320.349 258.078 C 319.415 257.368,318.835 258.967,319.434 260.600 C 319.595 261.040,319.585 261.271,319.411 261.114 C 318.936 260.684,317.728 261.468,317.495 262.357 C 317.342 262.944,317.455 263.090,317.945 262.940 C 318.509 262.768,318.505 262.801,317.917 263.180 C 317.490 263.456,317.330 263.880,317.492 264.311 C 317.724 264.932,317.674 264.942,316.975 264.413 C 316.549 264.090,316.311 263.961,316.447 264.127 C 316.582 264.292,316.132 265.010,315.447 265.723 C 313.190 268.070,312.371 269.229,312.649 269.679 C 312.810 269.940,312.742 270.012,312.486 269.853 C 312.245 269.704,311.722 269.915,311.324 270.322 C 310.926 270.729,309.880 271.588,309.000 272.231 C 306.961 273.720,305.172 276.006,306.862 274.962 C 307.137 274.791,307.215 274.851,307.055 275.111 C 306.908 275.349,306.345 275.464,305.804 275.366 C 305.069 275.233,304.877 275.334,305.042 275.765 C 305.204 276.188,305.042 276.284,304.432 276.124 C 303.409 275.857,301.258 277.141,301.981 277.588 C 302.348 277.815,302.327 277.942,301.897 278.107 C 301.584 278.228,301.090 278.179,300.800 278.000 C 300.164 277.607,299.116 277.940,299.423 278.437 C 299.543 278.632,299.380 278.691,299.061 278.568 C 298.742 278.446,298.362 278.538,298.217 278.773 C 298.072 279.008,297.603 279.200,297.176 279.200 C 296.310 279.200,296.126 279.823,296.900 280.135 C 297.175 280.246,297.006 280.351,296.524 280.368 C 296.042 280.386,295.546 280.236,295.422 280.036 C 295.177 279.639,294.452 279.665,293.766 280.094 C 293.527 280.244,292.627 280.404,291.766 280.450 C 290.905 280.497,290.020 280.633,289.800 280.752 C 289.581 280.872,289.131 280.991,288.800 281.017 C 288.470 281.042,287.795 281.094,287.300 281.132 C 285.702 281.253,286.345 281.998,288.100 282.057 C 289.114 282.092,288.429 282.248,286.400 282.444 C 284.530 282.625,264.505 282.801,241.900 282.834 L 200.800 282.894 200.796 315.947 C 200.793 334.126,200.679 349.676,200.543 350.503 L 200.294 352.006 245.145 351.997 C 280.503 351.989,289.975 351.883,289.898 351.494 C 289.844 351.220,290.290 350.944,290.900 350.873 C 291.505 350.804,292.000 350.579,292.000 350.373 C 292.000 350.168,292.264 350.000,292.587 350.000 C 292.945 350.000,293.085 350.235,292.945 350.600 C 292.761 351.080,293.084 351.200,294.557 351.200 C 295.571 351.200,296.400 351.020,296.400 350.800 C 296.400 350.580,296.085 350.397,295.700 350.394 C 295.133 350.389,295.107 350.320,295.566 350.030 C 295.877 349.833,296.462 349.735,296.866 349.813 C 297.270 349.890,297.600 349.790,297.600 349.590 C 297.600 349.389,297.870 349.329,298.200 349.455 C 298.530 349.582,298.800 349.936,298.800 350.243 C 298.800 350.831,300.284 350.997,301.043 350.494 C 301.287 350.332,301.445 349.930,301.394 349.600 C 301.329 349.183,301.682 348.985,302.551 348.951 C 303.238 348.924,303.485 348.982,303.100 349.080 C 301.870 349.394,302.350 349.999,303.700 349.837 C 304.537 349.736,304.954 349.488,304.871 349.140 C 304.777 348.745,304.864 348.719,305.192 349.041 C 305.681 349.520,307.600 349.311,307.600 348.779 C 307.600 348.598,307.015 348.378,306.300 348.289 C 305.115 348.142,305.144 348.122,306.620 348.064 C 307.511 348.029,308.456 347.784,308.720 347.520 C 309.093 347.147,309.200 347.236,309.200 347.920 C 309.200 348.841,310.511 349.191,311.000 348.400 C 311.136 348.180,311.651 348.000,312.144 348.000 C 313.179 348.000,315.192 347.143,315.197 346.700 C 315.202 346.223,314.208 346.352,313.656 346.900 C 313.252 347.301,313.205 347.261,313.419 346.700 C 313.727 345.890,315.211 345.771,315.937 346.497 C 316.303 346.863,316.508 346.874,316.717 346.537 C 316.872 346.286,317.450 346.013,318.000 345.931 C 318.550 345.848,318.955 345.560,318.900 345.291 C 318.777 344.687,319.292 344.652,319.866 345.226 C 320.167 345.527,320.482 345.461,320.943 345.000 C 321.301 344.642,321.768 344.457,321.981 344.588 C 322.193 344.720,322.690 344.656,323.084 344.447 C 323.478 344.238,324.385 343.850,325.100 343.585 C 325.815 343.320,326.400 342.915,326.400 342.685 C 326.400 342.455,326.519 342.386,326.664 342.531 C 326.810 342.676,327.125 342.406,327.364 341.929 C 327.604 341.453,328.070 340.983,328.400 340.886 C 328.759 340.779,328.679 340.962,328.200 341.341 L 327.400 341.975 328.200 341.975 C 329.187 341.975,330.494 341.033,330.094 340.611 C 329.932 340.440,330.232 340.434,330.761 340.596 C 331.556 340.841,331.677 340.777,331.463 340.220 C 331.261 339.694,331.373 339.601,331.976 339.792 C 332.814 340.058,337.129 337.851,337.461 336.986 C 337.566 336.713,337.960 336.569,338.337 336.668 C 339.066 336.858,340.521 335.800,340.906 334.800 C 341.033 334.470,341.151 334.408,341.168 334.662 C 341.192 335.012,341.443 335.012,342.197 334.662 C 343.440 334.086,343.513 333.428,342.300 333.733 C 341.436 333.951,341.431 333.937,342.167 333.387 C 342.781 332.929,343.056 332.912,343.542 333.307 C 344.046 333.716,344.108 333.688,343.905 333.145 C 343.726 332.668,343.845 332.539,344.342 332.669 C 345.210 332.896,346.914 331.474,346.396 330.956 C 346.161 330.721,346.333 330.384,346.852 330.060 C 347.309 329.775,347.572 329.722,347.435 329.943 C 347.001 330.646,347.910 330.833,348.568 330.175 C 349.298 329.445,349.422 328.615,348.738 329.038 C 348.451 329.216,348.385 329.148,348.564 328.859 C 348.722 328.603,349.299 328.475,349.847 328.574 C 350.477 328.689,350.924 328.543,351.064 328.177 C 351.186 327.860,351.502 327.600,351.766 327.600 C 352.572 327.600,357.312 322.904,357.005 322.409 C 356.846 322.151,357.348 321.349,358.162 320.558 C 359.942 318.829,360.076 319.270,358.322 321.081 C 357.471 321.959,357.245 322.400,357.647 322.400 C 358.429 322.400,360.505 320.238,360.106 319.839 C 359.938 319.671,360.055 319.593,360.367 319.667 C 360.679 319.740,361.145 319.396,361.403 318.902 C 361.661 318.409,361.958 318.092,362.065 318.198 C 362.171 318.305,362.755 317.873,363.362 317.240 C 363.992 316.582,364.293 315.981,364.065 315.840 C 363.844 315.704,363.330 315.999,362.922 316.496 C 362.514 316.993,361.915 317.458,361.590 317.529 C 361.266 317.601,361.450 317.256,362.000 316.764 C 362.550 316.271,363.331 315.493,363.735 315.034 C 364.139 314.575,364.361 314.413,364.228 314.672 C 363.053 316.973,366.913 313.483,370.060 309.400 C 370.569 308.740,371.124 308.140,371.293 308.067 C 371.462 307.993,371.600 307.700,371.600 307.416 C 371.600 307.131,371.878 306.667,372.218 306.385 C 372.558 306.103,372.744 305.631,372.631 305.336 C 372.514 305.031,372.690 304.800,373.040 304.800 C 373.485 304.800,373.584 304.553,373.401 303.900 C 373.233 303.303,373.270 303.175,373.510 303.521 C 373.921 304.111,376.000 301.723,376.000 300.660 C 376.000 300.334,376.225 299.976,376.500 299.865 C 376.900 299.704,376.900 299.657,376.500 299.632 C 376.225 299.614,376.003 299.285,376.006 298.900 C 376.011 298.334,376.080 298.308,376.370 298.765 C 376.885 299.578,378.100 298.327,377.731 297.364 C 377.549 296.891,377.613 296.761,377.932 296.958 C 378.216 297.133,378.400 296.992,378.400 296.600 C 378.400 296.244,378.222 296.063,378.005 296.197 C 377.778 296.337,377.711 296.177,377.846 295.823 C 377.977 295.483,378.255 295.310,378.464 295.439 C 379.001 295.771,380.792 293.613,381.068 292.300 C 381.196 291.695,381.477 291.200,381.693 291.200 C 381.909 291.200,381.982 290.930,381.855 290.600 C 381.729 290.270,381.810 290.000,382.036 290.000 C 382.262 290.000,382.348 289.839,382.226 289.642 C 382.104 289.445,382.274 289.181,382.602 289.054 C 382.931 288.928,383.200 288.459,383.200 288.013 C 383.200 287.566,383.350 287.200,383.533 287.200 C 383.716 287.200,384.059 286.570,384.296 285.799 C 384.532 285.029,384.562 284.500,384.363 284.623 C 384.163 284.746,384.000 284.657,384.000 284.424 C 384.000 284.191,384.252 284.000,384.561 284.000 C 385.250 284.000,386.224 281.475,385.613 281.271 C 385.386 281.195,385.221 280.743,385.246 280.267 C 385.283 279.590,385.333 279.554,385.476 280.100 C 385.953 281.928,387.371 279.552,387.371 276.923 C 387.371 275.928,387.438 275.315,387.520 275.560 C 387.796 276.388,388.400 275.560,388.400 274.353 C 388.400 273.594,388.559 273.251,388.833 273.420 C 389.092 273.581,389.228 273.390,389.171 272.944 C 389.119 272.535,389.216 271.879,389.386 271.488 C 389.556 271.096,389.588 270.242,389.458 269.591 C 389.295 268.773,389.373 268.437,389.711 268.504 C 389.992 268.559,390.200 268.174,390.200 267.600 C 390.200 267.050,390.425 266.456,390.700 266.280 C 391.296 265.899,391.370 263.752,390.800 263.400 C 390.266 263.070,390.287 260.917,390.827 260.583 C 391.062 260.438,391.165 260.085,391.055 259.799 C 390.945 259.512,391.201 259.188,391.628 259.077 C 392.529 258.841,392.703 256.887,391.900 256.021 C 391.492 255.581,391.529 255.528,392.100 255.729 C 392.514 255.874,392.810 255.776,392.825 255.487 C 392.838 255.219,392.980 253.695,393.140 252.100 C 393.300 250.505,393.289 249.200,393.115 249.200 C 392.942 249.200,392.800 249.464,392.800 249.787 C 392.800 250.159,392.567 250.286,392.166 250.132 C 391.774 249.981,391.693 249.790,391.954 249.628 C 392.226 249.460,392.371 246.570,392.364 241.441 C 392.358 237.081,392.453 233.413,392.576 233.290 C 392.699 233.167,392.800 233.367,392.800 233.733 C 392.800 234.100,392.938 234.400,393.106 234.400 C 393.275 234.400,393.289 232.915,393.138 231.100 C 392.813 227.189,392.875 227.506,392.480 227.751 C 392.304 227.859,391.923 227.555,391.633 227.074 C 391.197 226.351,391.197 226.286,391.633 226.700 C 392.452 227.477,392.883 227.291,392.564 226.300 C 392.405 225.805,392.287 225.130,392.304 224.800 C 392.364 223.563,391.998 222.958,391.585 223.611 C 391.290 224.077,391.211 224.011,391.206 223.300 C 391.203 222.805,391.039 222.400,390.842 222.400 C 390.245 222.400,390.099 219.137,390.685 218.912 C 391.289 218.680,391.350 217.612,390.833 216.319 C 390.630 215.813,390.351 215.045,390.211 214.611 C 389.999 213.952,389.896 213.919,389.585 214.411 C 389.269 214.910,389.211 214.896,389.206 214.324 C 389.203 213.952,389.373 213.540,389.585 213.409 C 389.828 213.259,389.811 212.771,389.540 212.086 C 389.304 211.489,389.064 210.730,389.007 210.400 C 388.736 208.818,388.257 207.969,387.747 208.165 C 387.117 208.407,387.053 208.052,387.577 207.224 C 387.812 206.853,387.744 206.265,387.387 205.574 C 387.082 204.984,386.945 204.389,387.083 204.251 C 387.221 204.113,387.050 204.000,386.704 204.000 C 386.284 204.000,386.141 203.749,386.272 203.245 C 386.381 202.830,386.274 202.369,386.035 202.222 C 385.786 202.068,385.587 202.262,385.568 202.676 C 385.544 203.239,385.486 203.267,385.308 202.800 C 385.183 202.470,384.882 202.048,384.640 201.862 C 384.367 201.653,384.453 201.605,384.867 201.737 C 385.234 201.854,385.626 201.709,385.739 201.414 C 385.856 201.110,385.612 200.792,385.172 200.677 C 384.748 200.566,384.403 200.233,384.406 199.937 C 384.411 199.529,384.506 199.544,384.800 200.000 C 385.121 200.496,385.187 200.462,385.181 199.800 C 385.173 198.861,384.126 197.341,383.747 197.720 C 383.604 197.863,383.696 198.234,383.953 198.544 C 384.318 198.983,384.286 199.158,383.810 199.341 C 383.204 199.573,383.145 199.318,383.065 196.125 C 383.052 195.644,382.941 195.313,382.817 195.390 C 382.693 195.466,382.233 195.251,381.796 194.911 C 381.174 194.428,381.150 194.344,381.687 194.529 C 382.552 194.826,383.074 194.080,382.228 193.755 C 381.885 193.624,381.704 193.355,381.826 193.158 C 381.948 192.961,381.769 192.800,381.428 192.800 C 381.025 192.800,380.843 192.487,380.905 191.900 C 380.968 191.301,380.810 191.041,380.432 191.123 C 379.942 191.228,379.942 191.150,380.432 190.546 C 380.745 190.161,380.820 189.948,380.600 190.072 C 380.380 190.196,379.840 189.933,379.400 189.488 C 378.715 188.794,378.701 188.713,379.301 188.927 C 379.965 189.163,379.966 189.120,379.324 188.139 C 378.699 187.186,378.621 187.163,378.350 187.852 C 378.132 188.407,378.049 188.440,378.028 187.980 C 378.013 187.639,378.225 187.118,378.500 186.821 C 378.909 186.380,378.868 186.329,378.274 186.539 C 377.691 186.744,377.597 186.641,377.796 186.012 C 378.084 185.106,376.502 182.690,375.875 183.078 C 375.644 183.220,375.602 183.120,375.775 182.841 C 375.950 182.558,375.716 182.047,375.210 181.609 C 374.736 181.197,374.338 180.712,374.326 180.530 C 374.231 179.081,372.660 177.094,371.507 176.967 C 371.008 176.912,370.533 176.852,370.451 176.833 C 370.369 176.815,370.516 176.542,370.778 176.227 C 371.343 175.546,370.071 174.019,368.900 173.972 C 368.246 173.946,368.247 173.925,368.915 173.661 C 369.549 173.411,369.465 173.186,368.172 171.676 C 367.078 170.397,366.587 170.078,366.204 170.397 C 365.831 170.706,365.628 170.650,365.451 170.189 C 365.318 169.842,365.375 169.661,365.577 169.786 C 365.779 169.911,366.043 169.854,366.163 169.660 C 366.468 169.166,364.943 167.865,364.430 168.182 C 364.185 168.333,364.099 168.208,364.224 167.881 C 364.356 167.539,363.101 165.972,361.003 163.860 C 357.622 160.457,357.300 160.237,355.900 160.379 C 355.515 160.418,355.179 160.214,355.154 159.925 C 355.128 159.636,355.083 159.185,355.054 158.922 C 354.973 158.203,351.846 155.463,351.678 155.965 C 351.448 156.656,350.883 156.469,350.944 155.723 C 350.975 155.351,350.596 154.840,350.102 154.588 C 349.609 154.335,349.319 154.014,349.460 153.874 C 349.600 153.734,349.378 153.490,348.967 153.332 C 347.463 152.755,346.000 151.088,346.000 149.953 C 346.000 148.340,345.187 146.800,344.336 146.800 C 343.423 146.800,343.396 146.437,344.261 145.805 C 344.679 145.499,344.801 145.125,344.592 144.787 C 344.336 144.372,344.190 144.426,343.940 145.027 C 343.744 145.500,343.710 145.218,343.854 144.300 C 344.107 142.682,343.386 142.122,343.082 143.700 C 342.922 144.530,342.905 144.521,342.854 143.580 C 342.825 143.019,343.025 142.332,343.300 142.053 C 343.701 141.647,343.662 141.444,343.106 141.034 C 342.725 140.752,342.519 140.414,342.650 140.283 C 342.954 139.979,341.913 137.600,341.475 137.600 C 341.294 137.600,341.268 137.983,341.416 138.450 C 341.597 139.022,341.541 139.211,341.243 139.026 C 340.642 138.655,340.681 137.310,341.300 137.086 C 341.700 136.941,341.700 136.735,341.300 136.058 C 341.025 135.592,340.800 134.966,340.800 134.667 C 340.800 133.810,339.333 132.627,339.073 133.276 C 338.936 133.618,338.852 133.557,338.832 133.100 C 338.814 132.715,338.964 132.400,339.165 132.400 C 339.663 132.400,339.509 131.739,338.478 129.449 C 337.995 128.376,337.594 127.386,337.587 127.249 C 337.542 126.368,336.349 125.435,335.990 126.002 C 335.764 126.360,335.610 126.409,335.606 126.124 C 335.603 125.862,335.780 125.536,336.000 125.400 C 336.595 125.032,336.484 124.400,335.824 124.400 C 335.507 124.400,335.119 124.192,334.962 123.938 C 334.785 123.652,334.852 123.585,335.138 123.762 C 335.715 124.119,335.726 123.782,335.169 122.743 C 334.925 122.286,334.492 122.032,334.169 122.156 C 333.846 122.281,333.600 122.136,333.600 121.821 C 333.600 121.516,333.825 121.186,334.100 121.088 C 334.450 120.963,334.339 120.623,333.730 119.955 C 333.251 119.430,332.736 118.505,332.586 117.900 C 332.436 117.295,332.153 116.800,331.957 116.800 C 331.760 116.800,331.600 116.543,331.600 116.229 C 331.600 115.914,331.375 115.414,331.100 115.116 C 330.825 114.819,330.299 114.046,329.932 113.398 C 329.166 112.051,328.274 111.546,328.637 112.667 C 328.830 113.260,328.796 113.288,328.461 112.813 C 328.171 112.405,328.180 112.065,328.489 111.693 C 328.831 111.281,328.733 111.108,328.059 110.931 C 327.547 110.798,327.231 110.438,327.294 110.061 C 327.352 109.707,327.190 109.414,326.933 109.409 C 326.155 109.394,325.813 108.800,326.582 108.800 C 327.173 108.800,327.211 108.695,326.800 108.200 C 326.526 107.870,325.919 107.597,325.451 107.594 C 324.755 107.589,324.709 107.517,325.200 107.200 C 325.600 106.942,325.633 106.810,325.300 106.806 C 325.025 106.803,324.829 106.665,324.865 106.500 C 325.125 105.292,322.652 102.218,321.711 102.579 C 321.262 102.751,321.157 102.608,321.308 102.032 C 321.593 100.939,320.556 99.567,319.689 99.892 C 319.097 100.113,319.074 100.059,319.527 99.502 C 320.089 98.809,318.394 96.336,317.432 96.445 C 316.533 96.548,316.000 96.387,316.000 96.013 C 316.000 95.799,316.272 95.729,316.605 95.857 C 317.061 96.032,317.139 95.907,316.924 95.346 C 316.568 94.419,314.740 92.565,314.315 92.700 C 314.142 92.755,314.000 92.601,314.000 92.357 C 314.000 92.114,313.745 92.012,313.433 92.132 C 313.121 92.252,312.763 92.082,312.638 91.754 C 312.509 91.418,312.581 91.265,312.805 91.403 C 313.022 91.537,313.200 91.424,313.200 91.152 C 313.200 90.276,303.104 80.462,302.458 80.710 C 302.077 80.856,301.971 80.771,302.158 80.468 C 302.317 80.211,302.246 80.000,302.000 80.000 C 301.754 80.000,301.651 79.840,301.772 79.645 C 302.174 78.994,300.397 78.860,299.763 79.494 M345.154 149.349 C 345.110 150.157,345.097 150.160,344.911 149.400 C 344.802 148.960,344.508 148.330,344.257 148.000 C 343.860 147.478,343.891 147.472,344.500 147.949 C 344.885 148.251,345.179 148.881,345.154 149.349 M280.400 180.730 C 280.400 180.915,280.530 181.196,280.688 181.355 C 280.846 181.513,280.996 181.948,281.020 182.321 C 281.044 182.695,281.094 183.495,281.132 184.100 C 281.246 185.943,281.869 185.326,281.940 183.299 C 281.994 181.783,281.845 181.296,281.204 180.895 C 280.762 180.619,280.400 180.545,280.400 180.730 M376.960 184.894 C 377.231 185.075,377.132 185.190,376.700 185.194 C 376.230 185.198,376.010 184.905,376.032 184.300 C 376.053 183.699,376.139 183.599,376.292 184.000 C 376.417 184.330,376.718 184.732,376.960 184.894 M282.160 193.800 C 282.161 197.100,282.222 198.397,282.298 196.682 C 282.373 194.967,282.372 192.267,282.297 190.682 C 282.221 189.097,282.159 190.500,282.160 193.800 M390.723 220.593 C 390.814 221.367,391.059 222.000,391.269 222.000 C 391.783 222.000,391.512 219.498,390.980 219.324 C 390.720 219.239,390.622 219.723,390.723 220.593 M393.000 241.400 C 393.000 245.030,393.135 248.000,393.300 248.000 C 393.465 248.000,393.600 245.030,393.600 241.400 C 393.600 237.770,393.465 234.800,393.300 234.800 C 393.135 234.800,393.000 237.770,393.000 241.400 M320.000 256.800 C 320.000 257.020,320.270 257.200,320.600 257.200 C 320.930 257.200,321.200 257.020,321.200 256.800 C 321.200 256.580,320.930 256.400,320.600 256.400 C 320.270 256.400,320.000 256.580,320.000 256.800 M390.800 261.800 C 390.800 262.350,390.980 262.800,391.200 262.800 C 391.420 262.800,391.600 262.350,391.600 261.800 C 391.600 261.250,391.420 260.800,391.200 260.800 C 390.980 260.800,390.800 261.250,390.800 261.800 M325.200 343.043 C 325.200 343.129,324.705 343.197,324.100 343.194 C 323.299 343.189,323.153 343.091,323.564 342.831 C 324.073 342.508,325.200 342.654,325.200 343.043 " stroke="none" fill="#4484f4" fill-rule="evenodd"></path><path id="path1" d="M180.667 41.067 C 180.225 41.508,180.366 42.000,180.933 42.000 C 181.227 42.000,181.467 41.730,181.467 41.400 C 181.467 40.767,181.113 40.620,180.667 41.067 M77.635 102.558 C 77.258 103.012,77.267 103.119,77.678 103.059 C 78.230 102.978,78.587 102.453,78.290 102.157 C 78.193 102.060,77.898 102.241,77.635 102.558 M199.100 109.489 C 199.815 109.578,200.985 109.578,201.700 109.489 C 202.415 109.401,201.830 109.328,200.400 109.328 C 198.970 109.328,198.385 109.401,199.100 109.489 M161.400 119.600 C 161.536 119.820,161.277 120.000,160.824 120.000 C 160.371 120.000,160.000 120.180,160.000 120.400 C 160.000 120.907,160.259 120.904,161.226 120.386 C 162.055 119.942,162.274 119.200,161.576 119.200 C 161.343 119.200,161.264 119.380,161.400 119.600 M318.646 260.224 C 318.327 261.056,318.464 261.255,319.090 260.868 C 319.361 260.701,319.422 260.359,319.235 260.056 C 318.984 259.650,318.852 259.688,318.646 260.224 M99.957 277.900 C 99.934 278.065,99.889 278.515,99.857 278.899 C 99.826 279.283,88.931 290.485,75.646 303.791 C 51.018 328.458,49.884 329.731,52.030 330.292 C 52.454 330.403,52.800 330.640,52.800 330.818 C 52.800 330.997,54.195 332.004,55.900 333.057 C 57.605 334.110,59.090 335.068,59.200 335.186 C 59.477 335.482,60.876 336.349,61.600 336.673 C 61.930 336.821,62.290 337.045,62.400 337.171 C 62.971 337.826,65.317 338.841,65.816 338.649 C 66.132 338.528,66.348 338.606,66.295 338.822 C 66.193 339.242,67.672 340.116,71.200 341.720 C 75.458 343.656,76.327 344.000,76.960 344.000 C 77.312 344.000,77.600 344.160,77.600 344.355 C 77.600 344.551,78.252 344.833,79.049 344.983 C 79.846 345.132,80.791 345.401,81.149 345.581 C 83.197 346.607,87.544 348.000,88.695 348.000 C 89.105 348.000,89.646 348.206,89.898 348.458 C 90.241 348.801,90.651 348.793,91.540 348.425 C 92.191 348.155,93.146 348.015,93.662 348.113 C 94.387 348.251,94.304 348.303,93.300 348.346 C 90.253 348.473,92.108 349.277,96.800 349.861 C 97.790 349.985,98.823 350.267,99.096 350.488 C 99.683 350.965,102.523 350.522,102.202 350.003 C 102.079 349.805,102.648 349.750,103.491 349.880 C 105.344 350.166,105.693 350.400,104.267 350.400 C 102.187 350.400,103.238 351.133,105.700 351.400 C 107.075 351.549,128.967 351.749,154.349 351.845 L 200.498 352.020 200.255 351.110 C 200.121 350.609,200.008 335.035,200.005 316.500 L 200.000 282.800 158.700 282.758 C 135.985 282.734,115.780 282.583,113.800 282.421 C 110.452 282.147,110.375 282.122,112.700 282.063 C 114.075 282.029,115.200 281.843,115.200 281.652 C 115.200 281.322,114.046 281.095,109.700 280.571 C 108.655 280.445,107.395 280.144,106.900 279.903 C 106.226 279.575,105.759 279.594,105.039 279.979 C 104.511 280.262,103.836 280.396,103.539 280.278 C 103.170 280.131,103.220 280.053,103.700 280.032 C 104.800 279.982,104.522 279.444,103.100 278.871 C 102.385 278.583,101.487 278.179,101.105 277.974 C 100.265 277.522,100.013 277.505,99.957 277.900 " stroke="none" fill="#33ac53" fill-rule="evenodd"></path><path id="path2" d="M111.400 133.442 C 91.460 134.979,75.503 139.990,60.106 149.551 C 57.519 151.157,55.506 152.171,55.362 151.939 C 54.971 151.306,53.173 151.940,51.708 153.227 C 50.973 153.872,50.198 154.400,49.986 154.400 C 49.774 154.400,49.600 154.599,49.600 154.843 C 49.600 155.086,49.879 155.178,50.221 155.047 C 50.590 154.906,50.738 154.976,50.587 155.221 C 50.447 155.447,49.975 155.519,49.538 155.380 C 48.945 155.192,48.687 155.346,48.519 155.987 C 48.392 156.476,48.072 156.760,47.777 156.646 C 47.197 156.424,46.142 157.475,46.543 157.876 C 46.684 158.018,46.800 157.923,46.800 157.667 C 46.800 157.410,47.083 157.200,47.429 157.200 C 47.996 157.200,47.997 157.260,47.438 157.820 C 47.097 158.160,46.589 158.409,46.309 158.372 C 45.221 158.229,44.834 158.424,45.057 159.005 C 45.222 159.434,45.106 159.539,44.654 159.365 C 44.223 159.200,43.867 159.454,43.549 160.153 C 43.290 160.720,42.784 161.278,42.424 161.392 C 41.403 161.717,37.809 165.542,37.804 166.311 C 37.802 166.764,37.542 166.956,37.046 166.870 C 36.499 166.776,36.358 166.913,36.533 167.370 C 36.666 167.716,36.590 168.000,36.364 168.000 C 36.138 168.000,36.081 168.208,36.238 168.462 C 36.416 168.750,36.348 168.815,36.055 168.634 C 35.798 168.475,35.706 168.132,35.852 167.872 C 35.998 167.613,35.722 167.807,35.238 168.305 C 34.755 168.803,34.468 169.386,34.600 169.601 C 34.744 169.832,34.549 169.881,34.121 169.721 C 33.474 169.478,33.460 169.524,33.978 170.161 C 34.483 170.780,34.483 170.861,33.978 170.788 C 32.830 170.624,32.449 170.815,32.169 171.698 C 32.012 172.192,31.280 173.200,30.543 173.937 C 29.805 174.675,29.302 175.441,29.424 175.639 C 29.547 175.838,29.365 176.000,29.020 176.000 C 28.491 176.000,28.472 176.127,28.897 176.812 C 29.312 177.482,29.297 177.689,28.812 177.990 C 28.012 178.488,27.772 178.156,28.392 177.410 C 28.670 177.074,28.741 176.810,28.549 176.822 C 27.914 176.862,26.365 179.131,26.793 179.396 C 27.420 179.783,27.275 180.404,26.617 180.151 C 26.229 180.002,25.948 180.270,25.777 180.949 C 25.636 181.511,25.223 182.067,24.860 182.185 C 24.497 182.302,23.889 182.947,23.508 183.618 C 23.127 184.289,22.980 184.736,23.180 184.612 C 23.900 184.168,24.036 185.221,23.348 185.903 C 22.679 186.566,22.658 186.566,22.910 185.900 C 23.056 185.515,23.017 185.200,22.823 185.200 C 22.263 185.200,20.708 188.728,21.035 189.257 C 21.237 189.584,21.120 189.655,20.666 189.481 C 20.300 189.340,20.000 189.399,20.000 189.613 C 20.000 189.826,20.191 190.000,20.424 190.000 C 20.657 190.000,20.734 190.183,20.596 190.407 C 20.458 190.630,20.198 190.722,20.018 190.611 C 19.538 190.315,18.885 191.288,19.016 192.102 C 19.079 192.488,18.964 192.702,18.762 192.577 C 18.560 192.452,18.273 192.665,18.125 193.051 C 17.970 193.454,18.057 193.819,18.328 193.909 C 18.588 193.996,18.800 194.242,18.800 194.457 C 18.800 194.672,18.612 194.731,18.382 194.589 C 17.812 194.236,16.801 195.136,17.047 195.778 C 17.156 196.063,16.953 196.590,16.594 196.948 C 16.047 197.496,16.037 197.600,16.534 197.600 C 16.927 197.600,17.055 197.867,16.917 198.396 C 16.803 198.833,16.538 199.085,16.328 198.955 C 15.768 198.609,14.873 200.023,14.988 201.072 C 15.043 201.570,14.933 201.882,14.743 201.765 C 14.217 201.440,13.592 203.459,13.835 204.700 C 13.970 205.392,13.810 206.096,13.403 206.600 C 12.767 207.386,12.763 207.385,13.179 206.524 C 13.493 205.874,13.473 205.574,13.101 205.360 C 12.825 205.202,12.728 205.213,12.884 205.387 C 13.040 205.560,12.906 206.208,12.586 206.828 C 12.217 207.541,12.149 208.045,12.401 208.201 C 12.898 208.508,12.931 210.400,12.439 210.400 C 12.241 210.400,11.953 211.480,11.800 212.799 C 11.647 214.119,11.356 215.097,11.154 214.972 C 10.952 214.847,10.883 214.590,11.000 214.400 C 11.117 214.210,11.022 213.937,10.788 213.793 C 10.498 213.614,10.434 214.210,10.587 215.665 C 10.733 217.057,10.689 217.521,10.459 217.000 C 10.144 216.284,10.039 216.362,9.454 217.749 C 8.659 219.633,8.616 220.800,9.341 220.800 C 9.954 220.800,9.769 224.892,9.145 225.133 C 8.955 225.207,8.797 225.927,8.794 226.733 C 8.789 227.795,8.685 228.037,8.415 227.611 C 8.088 227.093,8.017 227.093,7.827 227.611 C 7.401 228.777,7.400 231.000,7.827 230.924 C 8.088 230.878,8.181 231.346,8.067 232.123 C 7.907 233.218,7.836 233.285,7.568 232.599 C 7.397 232.160,7.244 236.266,7.228 241.724 C 7.212 247.471,7.351 251.554,7.558 251.426 C 7.755 251.304,8.014 251.459,8.133 251.769 C 8.252 252.080,8.051 252.448,7.686 252.588 C 7.179 252.783,7.143 252.917,7.532 253.158 C 7.813 253.332,8.011 253.637,7.974 253.837 C 7.743 255.059,8.039 256.559,8.400 256.000 C 8.706 255.526,8.789 255.615,8.794 256.420 C 8.797 256.981,8.960 257.611,9.155 257.820 C 9.783 258.493,9.941 262.752,9.330 262.518 C 8.991 262.388,8.800 262.626,8.800 263.181 C 8.800 263.661,8.980 263.936,9.203 263.798 C 9.424 263.661,9.721 263.849,9.861 264.215 C 10.007 264.595,9.877 265.033,9.558 265.234 C 9.095 265.528,9.093 265.589,9.547 265.594 C 9.895 265.598,10.018 265.890,9.884 266.400 C 9.769 266.839,9.827 267.293,10.012 267.407 C 10.197 267.522,10.421 267.027,10.510 266.308 C 10.671 265.011,10.672 265.012,10.736 266.500 C 10.771 267.325,10.980 268.000,11.200 268.000 C 11.420 268.000,11.600 268.450,11.600 269.000 C 11.600 269.550,11.420 270.000,11.200 270.000 C 10.611 270.000,10.714 271.729,11.356 272.607 C 11.661 273.025,11.829 273.581,11.728 273.843 C 11.628 274.105,11.738 274.438,11.973 274.583 C 12.225 274.739,12.419 274.469,12.446 273.924 C 12.479 273.280,12.547 273.206,12.672 273.679 C 12.770 274.053,12.663 274.709,12.434 275.137 C 12.119 275.725,12.162 276.037,12.608 276.407 C 12.934 276.677,13.214 277.191,13.232 277.549 C 13.253 277.984,13.332 278.030,13.469 277.687 C 13.583 277.404,13.434 276.864,13.138 276.487 C 12.649 275.862,12.666 275.852,13.324 276.369 C 13.894 276.817,13.992 277.261,13.788 278.469 C 13.529 280.003,14.156 280.711,14.524 279.300 C 14.675 278.724,14.715 278.745,14.754 279.420 C 14.779 279.871,14.575 280.468,14.300 280.747 C 13.899 281.153,13.947 281.362,14.540 281.800 C 14.947 282.101,15.161 282.539,15.016 282.773 C 14.596 283.454,15.228 284.190,15.676 283.543 C 15.939 283.163,15.977 283.267,15.803 283.890 C 15.360 285.464,17.169 288.448,17.748 287.100 C 17.866 286.825,17.893 287.095,17.808 287.700 C 17.723 288.305,17.821 288.800,18.026 288.800 C 18.232 288.800,18.411 288.575,18.425 288.300 C 18.439 288.025,18.623 288.231,18.834 288.758 C 19.045 289.285,19.112 290.048,18.983 290.454 C 18.656 291.483,19.253 292.389,19.602 291.395 C 19.846 290.700,19.883 290.709,20.095 291.522 C 20.222 292.005,20.162 292.300,19.963 292.177 C 19.763 292.054,19.600 292.233,19.600 292.576 C 19.600 292.919,19.799 293.200,20.043 293.200 C 20.286 293.200,20.382 293.470,20.255 293.800 C 20.129 294.130,20.180 294.400,20.369 294.400 C 20.558 294.400,20.828 294.857,20.968 295.415 C 21.108 295.973,21.443 296.402,21.711 296.368 C 22.927 296.212,23.286 296.430,23.084 297.200 C 22.948 297.720,23.072 298.000,23.437 298.000 C 24.127 298.000,24.162 298.478,23.520 299.120 C 23.147 299.493,23.147 299.600,23.520 299.600 C 23.784 299.600,24.000 299.886,24.000 300.235 C 24.000 300.584,24.549 301.077,25.220 301.330 C 26.221 301.708,26.397 301.956,26.207 302.716 C 26.023 303.447,26.124 303.616,26.687 303.520 C 27.242 303.427,27.383 303.645,27.323 304.509 C 27.281 305.119,27.397 305.525,27.581 305.412 C 27.764 305.298,28.027 305.654,28.165 306.203 C 28.303 306.751,28.604 307.200,28.835 307.200 C 29.078 307.200,29.148 306.822,29.001 306.300 C 28.803 305.598,28.839 305.532,29.165 306.000 C 29.394 306.330,29.501 306.870,29.403 307.200 C 29.105 308.200,30.693 309.939,31.229 309.200 C 31.571 308.729,31.616 308.827,31.436 309.656 C 31.256 310.484,31.422 310.854,32.203 311.365 C 32.752 311.725,33.200 312.237,33.200 312.505 C 33.200 312.772,33.649 313.443,34.197 313.996 C 34.746 314.548,35.809 315.661,36.561 316.470 C 37.312 317.278,38.034 317.833,38.164 317.703 C 38.294 317.573,38.400 317.677,38.400 317.933 C 38.400 318.190,38.681 318.400,39.024 318.400 C 39.367 318.400,39.550 318.557,39.431 318.750 C 39.104 319.279,41.133 321.289,41.664 320.961 C 41.947 320.785,42.015 320.853,41.839 321.136 C 41.406 321.838,43.468 323.547,44.514 323.354 C 45.001 323.265,45.175 323.298,44.900 323.429 C 44.217 323.754,44.272 324.265,45.021 324.553 C 45.377 324.689,45.537 324.622,45.397 324.395 C 45.263 324.178,45.331 324.000,45.549 324.000 C 45.768 324.000,46.062 324.366,46.204 324.813 C 46.536 325.858,48.059 327.375,50.022 328.614 C 51.108 329.299,51.502 329.411,51.339 328.986 C 51.178 328.566,58.595 320.879,75.453 303.994 C 98.689 280.721,100.864 278.400,99.442 278.400 C 99.095 278.400,98.914 278.169,99.028 277.871 C 99.144 277.569,98.795 277.144,98.215 276.880 C 97.602 276.600,97.200 276.572,97.200 276.809 C 97.200 277.024,96.990 277.200,96.733 277.200 C 96.477 277.200,96.380 277.086,96.519 276.947 C 96.982 276.485,95.984 275.200,95.162 275.200 C 94.717 275.200,94.464 275.020,94.600 274.800 C 94.736 274.580,94.667 274.400,94.447 274.400 C 94.227 274.400,93.936 274.580,93.800 274.800 C 93.390 275.464,92.806 275.249,93.081 274.534 C 93.266 274.051,93.191 273.958,92.806 274.196 C 92.485 274.395,92.373 274.368,92.522 274.127 C 92.799 273.678,91.748 272.000,91.190 272.000 C 90.989 272.000,90.880 272.225,90.947 272.500 C 91.014 272.775,90.993 272.865,90.901 272.700 C 90.809 272.535,90.433 272.397,90.067 272.394 C 89.499 272.389,89.488 272.332,89.990 272.015 C 90.487 271.700,90.430 271.483,89.624 270.626 C 88.931 269.888,88.533 269.723,88.171 270.024 C 87.821 270.314,87.582 270.294,87.374 269.958 C 87.192 269.663,87.245 269.581,87.511 269.745 C 88.321 270.245,88.386 269.311,87.591 268.591 C 86.829 267.903,86.799 267.904,86.768 268.638 C 86.745 269.210,86.680 269.250,86.508 268.800 C 86.383 268.470,86.082 268.051,85.840 267.870 C 85.530 267.636,85.556 267.477,85.928 267.327 C 86.313 267.172,86.232 266.957,85.628 266.535 C 85.173 266.216,84.800 265.714,84.800 265.420 C 84.800 265.126,84.530 264.782,84.200 264.655 C 83.870 264.529,83.600 264.171,83.600 263.862 C 83.600 263.552,83.344 263.086,83.031 262.826 C 82.563 262.437,82.495 262.517,82.643 263.277 C 82.821 264.193,82.819 264.193,82.403 263.242 C 82.172 262.715,82.086 261.905,82.212 261.442 C 82.438 260.612,82.432 260.611,81.813 261.386 C 81.217 262.133,81.198 262.108,81.443 260.886 C 81.610 260.048,81.543 259.600,81.250 259.600 C 81.002 259.600,80.789 259.915,80.775 260.300 C 80.756 260.820,80.653 260.760,80.375 260.067 C 80.170 259.554,80.111 258.699,80.244 258.167 C 80.493 257.176,79.835 256.782,79.465 257.700 C 79.354 257.975,79.249 257.784,79.232 257.276 C 79.214 256.756,79.375 256.461,79.600 256.600 C 79.820 256.736,80.000 256.577,80.000 256.247 C 80.000 255.688,79.394 255.086,78.700 254.956 C 78.535 254.925,78.265 254.875,78.100 254.844 C 77.935 254.813,78.007 254.656,78.260 254.494 C 78.844 254.121,78.967 253.249,78.597 252.100 C 78.250 251.025,77.729 250.932,77.476 251.900 C 77.375 252.285,77.272 252.021,77.246 251.313 C 77.208 250.260,77.328 250.065,77.900 250.243 C 78.421 250.405,78.396 250.336,77.800 249.971 C 77.360 249.702,76.934 249.427,76.852 249.360 C 76.771 249.293,76.989 248.954,77.335 248.607 C 78.094 247.849,77.833 246.954,76.772 246.677 C 76.215 246.531,76.000 246.123,76.000 245.214 C 76.000 244.500,76.169 244.057,76.388 244.193 C 76.925 244.524,77.278 242.886,77.126 240.768 C 77.044 239.617,76.825 239.035,76.500 239.100 C 76.196 239.161,76.002 238.769,76.006 238.100 C 76.011 237.210,76.094 237.115,76.441 237.600 C 76.783 238.078,76.828 238.011,76.664 237.268 C 76.499 236.522,76.591 236.387,77.129 236.592 C 77.667 236.797,77.701 236.747,77.300 236.344 C 76.706 235.745,76.630 235.047,77.196 235.398 C 77.446 235.552,77.539 234.786,77.448 233.321 C 77.369 232.045,77.381 231.679,77.475 232.509 C 77.696 234.449,78.400 234.043,78.400 231.976 C 78.400 231.109,78.574 230.400,78.787 230.400 C 79.001 230.400,79.070 230.128,78.943 229.795 C 78.815 229.462,78.933 228.922,79.204 228.595 C 79.476 228.268,79.541 227.997,79.349 227.994 C 79.157 227.991,79.270 227.813,79.600 227.600 C 80.000 227.342,80.033 227.210,79.700 227.206 C 79.415 227.203,79.214 226.727,79.232 226.100 C 79.249 225.495,79.354 225.225,79.465 225.500 C 79.810 226.356,80.424 226.047,80.260 225.100 C 80.174 224.605,80.264 223.840,80.460 223.400 C 80.771 222.701,80.793 222.722,80.629 223.565 C 80.468 224.388,80.521 224.447,80.985 223.965 C 82.222 222.681,83.147 220.508,82.667 220.018 C 82.315 219.660,82.315 219.575,82.664 219.671 C 83.166 219.811,85.999 216.859,86.000 216.196 C 86.000 215.974,86.375 215.558,86.833 215.272 C 87.306 214.977,87.571 214.502,87.446 214.176 C 87.325 213.859,87.390 213.600,87.592 213.600 C 87.794 213.600,88.444 213.150,89.038 212.600 C 89.631 212.050,90.290 211.600,90.501 211.600 C 90.713 211.600,90.790 211.350,90.673 211.045 C 90.523 210.656,90.690 210.551,91.230 210.692 C 91.653 210.803,92.000 210.692,92.000 210.447 C 92.000 210.201,91.809 210.000,91.576 210.000 C 91.343 210.000,91.276 209.801,91.426 209.557 C 91.625 209.236,91.777 209.240,91.982 209.571 C 92.352 210.170,93.600 209.679,93.600 208.934 C 93.600 208.592,93.793 208.472,94.068 208.642 C 94.390 208.841,94.450 208.706,94.259 208.209 C 94.014 207.572,94.061 207.552,94.656 208.043 C 95.237 208.523,95.303 208.518,95.133 208.004 C 95.024 207.676,95.162 207.181,95.439 206.904 C 96.117 206.226,96.425 206.268,96.145 207.000 C 96.018 207.330,96.080 207.600,96.282 207.600 C 96.762 207.600,98.400 206.070,98.400 205.622 C 98.400 205.431,98.790 205.377,99.267 205.502 C 99.938 205.677,100.080 205.586,99.895 205.104 C 99.741 204.702,99.920 204.410,100.398 204.285 C 100.938 204.143,101.077 204.256,100.906 204.700 C 100.751 205.105,100.862 205.246,101.236 205.121 C 101.546 205.018,101.823 204.723,101.850 204.467 C 101.877 204.210,101.923 203.840,101.950 203.645 C 101.978 203.450,102.530 203.213,103.179 203.118 C 103.858 203.018,104.259 203.105,104.124 203.323 C 103.913 203.664,105.279 203.574,107.288 203.114 C 108.205 202.904,108.681 202.401,107.967 202.398 C 107.655 202.396,107.868 202.151,108.441 201.852 C 109.607 201.243,114.076 200.753,113.758 201.269 C 113.645 201.451,115.057 201.600,116.896 201.600 C 119.017 201.600,120.437 201.783,120.779 202.100 C 121.219 202.508,121.272 202.471,121.071 201.900 C 120.750 200.987,124.193 200.918,125.376 201.813 C 125.804 202.136,125.928 202.400,125.653 202.400 C 125.378 202.400,125.264 202.580,125.400 202.800 C 125.811 203.466,127.320 203.289,127.058 202.606 C 126.792 201.914,127.950 202.464,129.350 203.695 C 129.796 204.088,130.545 204.317,131.070 204.222 C 131.582 204.129,132.000 204.221,132.000 204.426 C 132.000 204.632,132.255 204.800,132.567 204.800 C 132.878 204.800,133.216 205.025,133.317 205.300 C 133.459 205.687,133.624 205.674,134.050 205.241 C 134.352 204.934,134.387 204.802,134.128 204.948 C 133.868 205.094,133.542 205.030,133.404 204.807 C 133.265 204.582,133.518 204.400,133.969 204.400 C 134.502 204.400,134.870 204.741,135.032 205.386 C 135.305 206.473,136.279 206.951,137.444 206.571 C 138.069 206.367,138.096 206.400,137.600 206.762 C 137.073 207.147,137.071 207.246,137.589 207.579 C 137.971 207.824,138.271 207.809,138.439 207.536 C 138.620 207.245,138.784 207.251,138.974 207.557 C 139.124 207.801,139.102 208.003,138.924 208.006 C 138.746 208.009,138.870 208.185,139.200 208.397 C 139.530 208.609,140.160 208.684,140.600 208.565 C 141.217 208.397,141.269 208.438,140.826 208.743 C 140.190 209.181,140.964 210.593,141.618 210.189 C 141.798 210.078,142.228 210.390,142.573 210.882 C 142.918 211.375,143.211 211.603,143.225 211.389 C 143.239 211.175,143.421 211.426,143.629 211.946 C 143.908 212.641,144.226 212.834,144.834 212.675 C 145.347 212.541,145.955 212.755,146.440 213.240 C 147.214 214.014,147.211 214.018,146.114 213.743 C 145.065 213.479,145.044 213.501,145.701 214.158 C 146.082 214.539,146.603 214.722,146.859 214.564 C 147.146 214.386,147.216 214.451,147.042 214.732 C 146.722 215.250,148.995 217.663,149.423 217.260 C 149.575 217.117,149.568 217.428,149.407 217.950 C 149.246 218.473,149.270 218.804,149.461 218.686 C 149.652 218.568,150.163 219.269,150.597 220.243 C 151.031 221.217,151.585 221.938,151.829 221.844 C 152.766 221.485,153.313 222.241,152.804 223.192 C 152.458 223.838,152.447 224.207,152.763 224.523 C 153.003 224.763,153.200 224.828,153.200 224.666 C 153.200 224.504,153.560 224.565,154.000 224.800 C 154.440 225.035,154.800 225.526,154.800 225.891 C 154.800 226.483,154.853 226.488,155.300 225.936 C 155.575 225.597,156.473 224.822,157.296 224.215 C 158.119 223.608,158.693 222.951,158.572 222.755 C 158.452 222.560,158.540 222.400,158.769 222.400 C 159.451 222.400,162.828 218.964,162.501 218.604 C 162.335 218.421,162.405 218.389,162.655 218.531 C 162.905 218.674,163.332 218.523,163.604 218.196 C 163.876 217.868,163.959 217.600,163.790 217.600 C 163.620 217.600,164.089 217.191,164.831 216.690 C 165.574 216.190,166.590 215.174,167.090 214.431 C 167.591 213.689,168.000 213.226,168.000 213.402 C 168.000 213.578,168.675 213.026,169.500 212.175 C 170.325 211.324,170.955 210.487,170.900 210.314 C 170.845 210.141,170.980 210.000,171.200 210.000 C 171.964 210.000,174.874 206.843,174.567 206.347 C 174.365 206.020,174.474 205.943,174.905 206.108 C 175.255 206.243,175.757 206.093,176.020 205.776 C 176.283 205.459,176.359 205.200,176.190 205.200 C 176.020 205.200,176.489 204.791,177.231 204.290 C 177.974 203.790,178.990 202.774,179.490 202.031 C 179.991 201.289,180.400 200.826,180.400 201.002 C 180.400 201.178,181.075 200.626,181.900 199.775 C 182.725 198.924,183.355 198.087,183.300 197.914 C 183.245 197.741,183.365 197.600,183.567 197.600 C 184.106 197.600,187.200 194.541,187.200 194.008 C 187.200 193.758,187.360 193.651,187.555 193.772 C 187.750 193.893,188.132 193.723,188.404 193.396 C 188.676 193.068,188.759 192.800,188.590 192.800 C 188.420 192.800,188.889 192.391,189.631 191.890 C 190.374 191.390,191.390 190.374,191.890 189.631 C 192.391 188.889,192.800 188.420,192.800 188.590 C 192.800 188.759,193.068 188.676,193.396 188.404 C 193.723 188.132,193.893 187.750,193.772 187.555 C 193.651 187.360,193.758 187.200,194.008 187.200 C 194.541 187.200,197.600 184.106,197.600 183.567 C 197.600 183.365,197.741 183.245,197.914 183.300 C 198.087 183.355,198.924 182.725,199.775 181.900 C 200.626 181.075,201.160 180.399,200.961 180.399 C 200.763 180.398,201.192 180.036,201.917 179.594 C 202.734 179.096,203.189 178.528,203.117 178.096 C 203.045 177.670,203.218 177.447,203.563 177.521 C 204.913 177.811,205.124 176.069,203.900 174.737 C 203.405 174.198,202.745 173.272,202.432 172.679 C 202.120 172.085,201.625 171.600,201.332 171.600 C 201.040 171.600,200.800 171.409,200.800 171.176 C 200.800 170.943,200.640 170.851,200.445 170.972 C 200.250 171.093,200.115 170.898,200.145 170.539 C 200.175 170.180,199.975 169.807,199.700 169.710 C 199.371 169.594,199.278 169.784,199.430 170.267 C 199.646 170.954,199.632 170.956,199.209 170.297 C 198.960 169.910,198.850 169.442,198.965 169.257 C 199.155 168.949,197.811 167.200,197.384 167.200 C 197.039 167.200,197.199 167.542,197.848 168.190 C 198.550 168.893,198.463 169.333,197.713 168.870 C 197.458 168.712,197.154 168.061,197.038 167.423 C 196.789 166.045,194.049 163.096,193.290 163.387 C 192.998 163.499,192.859 163.428,192.982 163.229 C 193.379 162.587,191.263 160.458,190.442 160.673 C 190.028 160.781,189.569 160.674,189.422 160.435 C 189.274 160.196,189.388 159.996,189.676 159.991 C 189.964 159.986,189.755 159.640,189.211 159.222 C 188.667 158.804,188.055 158.566,187.849 158.693 C 187.642 158.821,187.611 158.705,187.781 158.431 C 188.133 157.862,186.906 156.600,186.000 156.600 C 185.670 156.600,185.400 156.338,185.400 156.018 C 185.400 155.673,184.681 155.227,183.642 154.926 C 182.675 154.646,181.775 154.301,181.642 154.159 C 181.509 154.017,181.849 154.039,182.397 154.208 C 183.289 154.483,183.337 154.447,182.848 153.858 C 182.548 153.496,182.043 153.200,181.727 153.200 C 181.395 153.200,181.273 153.005,181.438 152.738 C 181.607 152.465,181.549 152.384,181.296 152.541 C 181.061 152.686,180.792 152.669,180.700 152.502 C 180.607 152.336,180.586 152.425,180.653 152.700 C 180.720 152.975,180.511 153.200,180.187 153.200 C 179.609 153.200,179.430 152.739,179.583 151.645 C 179.634 151.279,179.394 151.160,178.874 151.296 C 178.442 151.409,177.844 151.327,177.544 151.113 C 177.128 150.816,177.165 150.778,177.700 150.950 C 178.926 151.344,178.454 150.578,176.806 149.499 C 175.930 148.925,175.109 148.623,174.983 148.828 C 174.643 149.378,174.116 149.280,173.863 148.620 C 173.704 148.206,173.835 148.113,174.320 148.295 C 174.910 148.516,174.929 148.462,174.458 147.883 C 174.055 147.388,173.728 147.317,173.184 147.608 C 172.248 148.110,171.887 148.107,172.200 147.600 C 172.657 146.861,171.976 146.323,171.288 146.881 C 170.807 147.270,170.722 147.275,170.947 146.900 C 171.112 146.625,171.057 146.400,170.824 146.400 C 170.591 146.400,170.400 146.148,170.400 145.839 C 170.400 145.222,168.206 144.212,167.102 144.321 C 166.718 144.359,166.424 144.257,166.449 144.095 C 166.569 143.320,166.348 143.145,165.811 143.591 C 165.221 144.081,163.903 143.298,164.016 142.524 C 164.040 142.357,163.867 142.156,163.630 142.077 C 163.394 141.998,163.200 142.139,163.200 142.390 C 163.200 142.642,163.008 142.729,162.773 142.584 C 162.539 142.439,162.448 142.219,162.571 142.096 C 162.961 141.705,161.221 140.740,160.703 141.060 C 160.367 141.268,160.527 141.455,161.204 141.643 L 162.200 141.920 161.100 141.960 C 160.260 141.991,160.000 141.814,160.000 141.214 C 160.000 140.137,158.817 139.595,156.956 139.820 C 156.100 139.923,155.625 139.901,155.900 139.770 C 156.714 139.384,156.469 138.689,155.599 138.916 C 155.159 139.031,154.894 138.971,155.011 138.783 C 155.346 138.240,153.935 137.695,152.338 137.750 C 151.534 137.777,150.954 137.674,151.049 137.520 C 151.144 137.366,150.868 137.051,150.435 136.819 C 149.913 136.540,149.565 136.533,149.401 136.799 C 149.264 137.020,148.938 137.186,148.676 137.168 C 148.335 137.146,148.343 137.079,148.702 136.934 C 148.979 136.823,149.103 136.567,148.979 136.366 C 148.616 135.779,148.074 135.943,147.876 136.700 C 147.745 137.199,147.679 137.127,147.646 136.449 C 147.603 135.561,147.487 135.515,145.900 135.755 C 144.872 135.910,144.412 135.872,144.737 135.659 C 145.133 135.399,145.000 135.255,144.227 135.107 C 143.652 134.997,143.077 135.076,142.950 135.281 C 142.723 135.648,136.246 135.399,135.599 135.000 C 134.318 134.208,116.414 133.055,111.400 133.442 M141.200 134.886 C 141.200 135.059,141.560 135.200,142.000 135.200 C 142.440 135.200,142.800 135.059,142.800 134.886 C 142.800 134.713,142.440 134.571,142.000 134.571 C 141.560 134.571,141.200 134.713,141.200 134.886 M153.541 138.529 C 153.894 138.954,153.737 139.023,152.750 138.878 C 151.876 138.750,151.676 138.598,152.059 138.355 C 152.798 137.887,153.031 137.914,153.541 138.529 M109.600 201.900 C 109.600 202.065,110.320 202.242,111.200 202.292 C 112.080 202.343,112.800 202.208,112.800 201.992 C 112.800 201.777,112.080 201.600,111.200 201.600 C 110.320 201.600,109.600 201.735,109.600 201.900 M122.225 201.960 C 121.969 202.374,124.236 202.297,124.655 201.878 C 124.808 201.725,124.374 201.600,123.690 201.600 C 123.007 201.600,122.347 201.762,122.225 201.960 M8.400 223.224 C 8.400 223.677,8.580 223.936,8.800 223.800 C 9.020 223.664,9.200 223.293,9.200 222.976 C 9.200 222.659,9.020 222.400,8.800 222.400 C 8.580 222.400,8.400 222.771,8.400 223.224 M8.747 258.100 C 8.498 258.568,8.574 261.600,8.834 261.600 C 9.019 261.600,9.155 260.790,9.135 259.800 C 9.104 258.266,8.970 257.680,8.747 258.100 " stroke="none" fill="#fbbc04" fill-rule="evenodd"></path><path id="path3" d="M190.900 40.298 C 185.465 40.470,185.546 41.200,191.000 41.200 C 193.533 41.200,195.200 41.041,195.200 40.800 C 195.200 40.550,197.043 40.432,200.100 40.486 L 205.000 40.572 200.300 40.699 C 197.623 40.771,195.600 40.992,195.600 41.213 C 195.600 41.446,193.412 41.582,190.100 41.554 C 187.075 41.528,184.915 41.425,185.300 41.324 C 186.793 40.934,185.902 40.427,184.100 40.642 C 181.591 40.940,181.100 41.114,181.398 41.597 C 181.535 41.819,181.277 42.000,180.824 42.000 C 180.371 42.000,180.000 42.180,180.000 42.400 C 180.000 42.620,179.595 42.786,179.100 42.768 C 178.605 42.751,178.425 42.646,178.700 42.535 C 179.791 42.095,179.104 41.600,177.400 41.600 C 175.627 41.600,174.934 42.176,176.300 42.515 C 176.685 42.610,176.010 42.609,174.800 42.514 C 172.485 42.330,169.535 42.785,169.594 43.316 C 169.674 44.036,168.365 44.796,167.129 44.747 L 165.800 44.695 167.200 44.416 C 168.297 44.197,168.450 44.070,167.904 43.827 C 166.622 43.257,159.857 45.006,160.857 45.649 C 161.192 45.865,160.901 45.903,160.100 45.749 C 159.297 45.595,158.800 45.661,158.800 45.922 C 158.800 46.154,159.205 46.422,159.700 46.518 C 160.530 46.678,160.521 46.695,159.580 46.746 C 159.019 46.775,158.354 46.594,158.102 46.342 C 157.772 46.012,157.333 46.001,156.522 46.305 C 155.905 46.536,155.045 46.842,154.611 46.984 C 153.953 47.200,153.920 47.304,154.411 47.610 C 154.798 47.851,154.485 47.895,153.500 47.736 C 152.509 47.577,152.000 47.649,152.000 47.948 C 152.000 48.196,152.405 48.421,152.900 48.446 C 153.607 48.483,153.646 48.533,153.081 48.679 C 152.685 48.782,152.125 48.670,151.836 48.430 C 151.452 48.111,150.904 48.165,149.787 48.631 C 148.626 49.116,148.398 49.354,148.831 49.628 C 149.192 49.856,149.226 49.990,148.924 49.994 C 148.662 49.997,148.349 49.841,148.228 49.646 C 147.938 49.177,144.972 50.234,145.095 50.762 C 145.148 50.987,144.931 51.072,144.614 50.950 C 144.298 50.829,143.805 50.877,143.519 51.058 C 143.234 51.240,142.910 51.399,142.800 51.414 C 141.772 51.546,140.794 52.178,140.768 52.727 C 140.751 53.106,140.652 53.191,140.543 52.922 C 140.315 52.363,139.958 52.469,136.074 54.250 C 134.464 54.988,133.259 55.771,133.394 55.991 C 133.535 56.218,133.387 56.293,133.052 56.165 C 132.254 55.858,130.708 56.728,131.054 57.288 C 131.236 57.582,131.097 57.646,130.650 57.474 C 129.735 57.123,128.411 58.001,128.354 58.996 C 128.315 59.670,128.278 59.687,128.124 59.100 C 127.946 58.419,127.205 58.100,127.195 58.700 C 127.193 58.865,126.518 59.325,125.695 59.723 C 123.180 60.939,122.498 61.565,123.202 62.010 C 123.560 62.236,123.609 62.390,123.324 62.394 C 123.062 62.397,122.728 62.206,122.581 61.970 C 122.411 61.695,122.037 61.839,121.542 62.370 C 121.117 62.826,120.494 63.200,120.158 63.200 C 119.182 63.200,116.737 65.258,116.975 65.878 C 117.135 66.297,117.021 66.340,116.508 66.053 C 115.852 65.685,115.584 65.831,112.917 68.006 C 112.651 68.223,112.291 68.403,112.117 68.406 C 111.943 68.410,111.222 68.905,110.516 69.506 C 109.809 70.108,108.054 71.478,106.616 72.552 C 105.177 73.625,104.000 74.655,104.000 74.841 C 104.000 75.027,103.505 75.443,102.900 75.765 C 102.295 76.088,101.260 76.905,100.600 77.582 C 98.874 79.352,98.737 79.478,97.288 80.640 C 96.316 81.419,96.041 81.898,96.227 82.485 C 96.440 83.157,96.345 83.236,95.605 83.002 C 94.821 82.753,88.400 88.660,88.400 89.631 C 88.400 89.759,87.545 90.766,86.500 91.868 C 83.652 94.871,82.277 96.452,81.185 97.976 C 79.937 99.720,79.135 100.747,78.497 101.419 C 78.174 101.759,78.138 102.038,78.397 102.198 C 79.039 102.595,78.863 103.600,78.151 103.600 C 77.598 103.600,77.580 103.496,78.031 102.900 C 78.322 102.515,77.900 102.830,77.093 103.600 C 76.286 104.370,75.620 105.203,75.613 105.451 C 75.606 105.699,75.330 106.126,75.000 106.400 C 74.670 106.674,74.400 107.247,74.400 107.673 C 74.400 108.099,74.220 108.336,74.000 108.200 C 73.780 108.064,73.600 108.156,73.600 108.405 C 73.600 108.654,73.316 109.141,72.969 109.488 C 72.622 109.835,72.423 110.446,72.528 110.846 C 72.632 111.246,72.528 111.534,72.295 111.486 C 71.657 111.356,68.811 115.729,69.239 116.180 C 69.763 116.732,69.681 117.205,69.100 116.987 C 68.688 116.833,67.121 118.953,66.436 120.593 C 66.345 120.809,66.015 121.242,65.701 121.556 C 65.388 121.870,65.210 122.539,65.306 123.043 C 65.403 123.548,65.317 123.924,65.116 123.880 C 64.695 123.788,63.674 125.572,62.189 129.000 C 60.870 132.043,60.219 133.511,59.561 134.926 C 59.134 135.843,59.132 136.111,59.552 136.371 C 59.929 136.603,59.843 136.748,59.234 136.907 C 58.406 137.124,58.035 138.400,58.800 138.400 C 59.020 138.400,59.179 138.805,59.154 139.300 C 59.119 139.977,59.062 140.027,58.924 139.500 C 58.668 138.518,58.281 138.633,57.711 139.859 C 57.204 140.951,57.378 141.785,58.028 141.383 C 58.232 141.256,58.400 141.343,58.400 141.576 C 58.400 141.972,57.900 142.129,57.368 141.900 C 57.006 141.744,56.030 143.706,56.014 144.620 C 56.006 145.071,55.814 145.626,55.587 145.853 C 55.360 146.080,55.295 146.581,55.443 146.967 C 55.657 147.526,55.785 147.560,56.077 147.134 C 56.345 146.743,56.407 146.814,56.307 147.400 C 56.229 147.859,55.906 148.156,55.551 148.097 C 54.874 147.986,53.842 149.821,54.229 150.447 C 54.361 150.661,54.263 151.083,54.012 151.386 C 53.645 151.828,53.708 151.897,54.332 151.734 C 54.760 151.622,55.223 151.713,55.361 151.936 C 55.506 152.172,57.499 151.170,60.106 149.551 C 82.410 135.701,110.051 130.365,135.600 134.976 C 138.651 135.527,141.200 135.415,141.200 134.731 C 141.200 134.523,141.369 134.457,141.575 134.584 C 141.781 134.712,143.090 133.687,144.483 132.308 C 145.877 130.929,148.406 128.743,150.102 127.450 C 151.798 126.158,153.071 124.915,152.931 124.689 C 152.791 124.462,152.868 124.395,153.103 124.540 C 153.556 124.820,155.993 123.607,155.997 123.100 C 155.999 122.935,156.257 122.800,156.571 122.800 C 156.886 122.800,157.384 122.558,157.680 122.263 C 157.975 121.968,158.632 121.504,159.139 121.232 C 159.688 120.939,159.973 120.506,159.842 120.164 C 159.671 119.719,159.857 119.649,160.670 119.853 C 161.437 120.046,161.639 119.986,161.420 119.632 C 161.235 119.334,161.328 119.185,161.660 119.245 C 162.587 119.415,165.555 118.313,166.256 117.539 C 166.746 116.997,166.783 116.800,166.395 116.800 C 166.105 116.800,165.971 116.695,166.099 116.568 C 166.227 116.440,166.710 116.538,167.172 116.785 C 167.892 117.170,168.066 117.103,168.381 116.318 C 168.584 115.813,168.761 115.625,168.775 115.900 C 168.805 116.489,170.400 116.587,170.400 116.000 C 170.400 115.780,170.749 115.600,171.176 115.600 C 171.603 115.600,172.066 115.417,172.204 115.193 C 172.342 114.970,172.610 114.883,172.800 115.000 C 172.990 115.117,173.258 115.030,173.396 114.807 C 173.534 114.583,174.166 114.400,174.800 114.400 C 175.434 114.400,176.064 114.220,176.200 114.000 C 176.336 113.780,176.797 113.600,177.224 113.600 C 178.191 113.600,178.248 112.917,177.300 112.683 C 176.915 112.588,177.050 112.585,177.600 112.677 C 179.595 113.010,180.187 112.993,180.199 112.600 C 180.221 111.938,180.816 111.200,181.324 111.206 C 181.614 111.210,181.570 111.357,181.211 111.585 C 180.714 111.899,180.739 112.002,181.373 112.245 C 182.234 112.576,185.652 111.762,186.040 111.135 C 186.218 110.848,186.389 110.859,186.581 111.170 C 186.848 111.601,187.666 111.555,191.000 110.916 C 192.062 110.713,192.108 110.651,191.400 110.371 C 190.722 110.104,190.707 110.052,191.300 110.028 C 191.685 110.013,192.000 109.820,192.000 109.600 C 192.000 109.368,193.050 109.232,194.500 109.276 L 197.000 109.351 194.689 109.496 C 189.532 109.819,193.219 110.400,200.424 110.400 C 207.622 110.400,210.969 109.826,205.700 109.496 L 203.400 109.351 205.729 109.276 C 207.886 109.206,209.623 109.930,209.317 110.771 C 209.217 111.047,215.847 112.031,218.466 112.130 C 219.492 112.168,220.302 112.376,220.266 112.592 C 220.230 112.808,221.100 113.157,222.200 113.367 C 223.300 113.578,224.317 113.923,224.460 114.133 C 224.602 114.344,225.286 114.403,225.979 114.264 C 226.673 114.125,227.143 114.168,227.025 114.360 C 226.907 114.551,227.393 114.929,228.105 115.200 C 228.817 115.471,230.350 116.122,231.511 116.646 C 232.672 117.171,233.887 117.600,234.211 117.600 C 234.535 117.600,234.800 117.799,234.800 118.043 C 234.800 118.286,235.070 118.376,235.400 118.243 C 236.984 117.602,237.432 117.519,236.665 118.009 C 235.713 118.618,237.617 119.756,238.961 119.382 C 239.516 119.227,239.628 119.268,239.290 119.503 C 238.931 119.754,239.993 120.612,242.890 122.413 C 245.151 123.817,247.180 125.106,247.400 125.277 C 247.620 125.448,248.372 126.045,249.070 126.604 C 249.837 127.218,250.440 127.458,250.594 127.210 C 250.967 126.606,251.609 126.710,251.369 127.336 C 251.256 127.631,251.442 128.103,251.782 128.385 C 252.310 128.823,252.400 128.760,252.400 127.953 C 252.400 127.238,258.200 121.205,276.300 103.093 C 289.688 89.695,300.024 79.050,299.800 78.888 C 299.580 78.730,299.400 78.320,299.400 77.977 C 299.400 77.634,298.410 76.504,297.200 75.465 C 295.990 74.426,294.544 73.158,293.987 72.648 C 293.430 72.139,292.589 71.515,292.118 71.263 C 291.648 71.011,291.023 70.579,290.731 70.303 C 289.851 69.470,287.200 67.546,287.200 67.740 C 287.200 67.840,286.642 67.399,285.959 66.762 C 285.277 66.125,284.557 65.703,284.359 65.825 C 284.162 65.947,284.000 65.857,284.000 65.624 C 284.000 65.391,283.801 65.200,283.557 65.200 C 283.314 65.200,283.218 65.470,283.345 65.800 C 283.471 66.130,283.401 66.400,283.187 66.400 C 282.836 66.400,282.653 65.803,282.900 65.461 C 283.159 65.103,281.809 63.988,281.336 64.169 C 281.041 64.282,280.800 64.188,280.800 63.959 C 280.800 63.523,279.817 62.400,279.436 62.400 C 279.314 62.400,278.031 61.676,276.584 60.790 C 275.138 59.905,273.804 59.274,273.619 59.388 C 273.435 59.502,273.169 59.296,273.029 58.931 C 272.834 58.424,272.663 58.377,272.307 58.733 C 271.727 59.313,271.060 59.350,271.411 58.782 C 271.796 58.159,270.898 57.285,269.572 56.994 C 268.928 56.852,268.400 56.592,268.400 56.415 C 268.400 56.048,266.852 55.483,266.100 55.574 C 265.825 55.608,265.600 55.447,265.600 55.218 C 265.600 54.988,265.330 54.800,265.000 54.800 C 264.670 54.800,264.400 54.664,264.400 54.498 C 264.400 54.331,263.815 53.949,263.100 53.648 C 262.385 53.348,260.900 52.702,259.800 52.213 C 255.585 50.340,254.980 50.120,254.328 50.219 C 253.958 50.275,253.556 50.061,253.434 49.743 C 253.258 49.286,253.036 49.259,252.372 49.615 C 251.910 49.862,251.427 49.960,251.299 49.832 C 251.171 49.705,251.287 49.600,251.557 49.600 C 251.827 49.600,251.936 49.420,251.800 49.200 C 251.386 48.531,250.286 48.726,250.553 49.421 C 250.698 49.799,250.625 49.939,250.368 49.780 C 250.136 49.637,250.045 49.260,250.166 48.944 C 250.479 48.129,249.318 47.802,248.212 48.393 C 247.699 48.668,247.036 48.796,246.739 48.678 C 246.435 48.557,246.592 48.449,247.100 48.432 C 247.595 48.414,248.000 48.198,248.000 47.950 C 248.000 47.665,247.567 47.587,246.818 47.736 C 245.948 47.910,245.688 47.836,245.834 47.456 C 246.122 46.706,242.946 45.694,242.308 46.332 C 241.362 47.278,239.295 46.659,239.256 45.420 C 239.236 44.785,234.330 43.574,232.698 43.801 C 231.652 43.947,231.228 43.864,231.298 43.530 C 231.356 43.256,230.748 42.936,229.880 42.785 C 228.694 42.578,228.406 42.638,228.568 43.060 C 228.702 43.411,228.472 43.600,227.907 43.600 C 227.232 43.600,227.146 43.494,227.521 43.119 C 228.065 42.575,225.231 41.650,222.924 41.618 C 221.598 41.599,220.821 42.181,221.698 42.534 C 222.041 42.673,222.011 42.743,221.600 42.756 C 221.270 42.766,220.651 42.510,220.224 42.187 C 219.796 41.864,219.616 41.595,219.824 41.588 C 220.031 41.581,219.874 41.386,219.476 41.155 C 219.078 40.923,214.938 40.575,210.276 40.381 C 202.041 40.038,199.473 40.027,190.900 40.298 M215.740 41.500 C 215.842 41.665,214.278 41.752,212.263 41.693 C 205.647 41.501,204.913 41.345,210.276 41.272 C 213.178 41.232,215.637 41.335,215.740 41.500 M234.305 44.675 C 233.922 44.775,233.202 44.779,232.705 44.683 C 232.207 44.587,232.520 44.505,233.400 44.501 C 234.280 44.496,234.687 44.575,234.305 44.675 M240.000 46.000 C 240.000 46.220,240.360 46.400,240.800 46.400 C 241.240 46.400,241.600 46.220,241.600 46.000 C 241.600 45.780,241.240 45.600,240.800 45.600 C 240.360 45.600,240.000 45.780,240.000 46.000 M274.945 60.600 C 275.071 60.930,275.078 61.200,274.959 61.200 C 274.840 61.200,274.473 60.930,274.143 60.600 C 273.622 60.080,273.621 60.000,274.129 60.000 C 274.451 60.000,274.818 60.270,274.945 60.600 M93.861 85.359 C 92.877 86.371,91.927 87.200,91.751 87.200 C 91.574 87.200,92.312 86.304,93.391 85.209 C 94.469 84.114,95.419 83.286,95.501 83.368 C 95.583 83.450,94.845 84.346,93.861 85.359 M201.700 109.489 C 200.985 109.578,199.815 109.578,199.100 109.489 C 198.385 109.401,198.970 109.328,200.400 109.328 C 201.830 109.328,202.415 109.401,201.700 109.489 M156.256 139.399 C 156.119 139.756,156.316 139.927,156.823 139.888 C 157.732 139.820,157.845 139.380,157.033 139.068 C 156.721 138.948,156.372 139.097,156.256 139.399 M174.067 148.681 C 174.300 148.962,174.650 149.093,174.845 148.972 C 175.457 148.594,175.233 148.171,174.422 148.171 C 173.837 148.171,173.749 148.298,174.067 148.681 M179.417 151.972 C 179.150 152.405,179.657 152.780,180.809 153.002 C 181.262 153.089,181.516 152.987,181.383 152.773 C 181.252 152.560,180.977 152.491,180.772 152.617 C 180.568 152.744,180.400 152.567,180.400 152.224 C 180.400 151.540,179.782 151.382,179.417 151.972 M189.839 159.938 C 189.700 160.161,189.782 160.465,190.020 160.612 C 190.635 160.993,191.032 160.472,190.518 159.958 C 190.231 159.671,190.007 159.664,189.839 159.938 M37.017 166.372 C 36.744 166.814,37.375 167.292,37.744 166.922 C 38.125 166.542,38.054 166.000,37.624 166.000 C 37.417 166.000,37.144 166.168,37.017 166.372 M25.280 180.880 C 24.716 181.444,24.653 182.000,25.153 182.000 C 25.348 182.000,25.601 181.640,25.716 181.200 C 25.960 180.266,25.922 180.238,25.280 180.880 M15.855 198.200 C 15.729 198.530,15.777 198.800,15.964 198.800 C 16.150 198.800,16.526 198.530,16.800 198.200 C 17.205 197.712,17.185 197.600,16.692 197.600 C 16.358 197.600,15.982 197.870,15.855 198.200 M113.033 201.457 C 112.716 202.285,112.367 202.237,116.800 201.977 L 120.600 201.753 117.076 201.677 C 114.847 201.628,113.644 201.453,113.800 201.200 C 113.936 200.980,113.876 200.800,113.666 200.800 C 113.457 200.800,113.172 201.096,113.033 201.457 M121.200 201.975 C 121.200 202.181,121.548 202.324,121.972 202.292 C 122.397 202.260,122.656 202.091,122.549 201.917 C 122.275 201.473,121.200 201.520,121.200 201.975 M127.090 202.824 C 127.202 203.251,127.528 203.600,127.814 203.600 C 128.100 203.600,128.664 203.725,129.067 203.878 C 130.003 204.232,129.058 203.277,127.728 202.524 C 126.985 202.103,126.911 202.138,127.090 202.824 M13.158 204.276 C 12.876 206.424,12.991 207.227,13.483 206.554 C 14.099 205.711,14.157 204.544,13.600 204.200 C 13.380 204.064,13.181 204.098,13.158 204.276 M133.600 204.946 C 133.600 204.988,133.975 205.344,134.434 205.736 C 135.208 206.399,135.259 206.401,135.134 205.763 C 135.035 205.254,133.600 204.490,133.600 204.946 M98.246 205.825 C 98.118 206.157,98.263 206.400,98.589 206.400 C 99.387 206.400,99.706 205.726,99.031 205.467 C 98.720 205.348,98.367 205.509,98.246 205.825 M95.310 207.132 C 95.039 207.299,94.978 207.641,95.165 207.944 C 95.416 208.350,95.548 208.312,95.754 207.776 C 96.073 206.944,95.936 206.745,95.310 207.132 M12.000 209.915 C 11.102 210.222,10.791 210.907,11.282 211.499 C 11.609 211.893,11.529 212.165,10.959 212.586 C 10.351 213.035,10.299 213.247,10.700 213.653 C 11.103 214.061,11.200 214.028,11.200 213.480 C 11.200 213.106,11.380 212.800,11.600 212.800 C 11.820 212.800,12.000 212.275,12.000 211.633 C 12.000 210.992,12.225 210.386,12.500 210.288 C 12.775 210.190,12.910 210.020,12.800 209.910 C 12.690 209.800,12.330 209.802,12.000 209.915 M9.885 215.449 C 9.447 215.886,9.547 216.880,10.000 216.600 C 10.220 216.464,10.414 216.678,10.432 217.076 C 10.449 217.474,10.544 217.605,10.643 217.366 C 10.892 216.763,10.234 215.099,9.885 215.449 M8.667 221.067 C 8.302 221.431,8.329 222.400,8.704 222.400 C 8.871 222.400,9.232 222.040,9.507 221.600 C 10.008 220.798,9.352 220.381,8.667 221.067 M152.000 222.353 C 152.000 222.793,152.180 223.264,152.400 223.400 C 152.620 223.536,152.800 223.287,152.800 222.847 C 152.800 222.407,152.620 221.936,152.400 221.800 C 152.180 221.664,152.000 221.913,152.000 222.353 M80.369 223.676 C 80.093 224.794,80.163 225.200,80.635 225.200 C 81.281 225.200,81.402 224.172,80.800 223.800 C 80.580 223.664,80.386 223.608,80.369 223.676 M7.870 225.762 C 7.484 226.768,7.537 227.686,7.966 227.421 C 8.167 227.297,8.423 227.421,8.534 227.698 C 8.646 227.974,8.738 227.840,8.740 227.400 C 8.747 225.961,8.193 224.920,7.870 225.762 M7.200 231.443 C 7.200 232.280,7.894 232.449,8.100 231.662 C 8.215 231.220,8.076 230.933,7.745 230.933 C 7.445 230.933,7.200 231.163,7.200 231.443 M6.972 241.800 C 6.972 246.860,7.029 248.875,7.099 246.277 C 7.169 243.680,7.168 239.540,7.098 237.077 C 7.028 234.615,6.971 236.740,6.972 241.800 M77.469 234.362 C 77.667 235.414,77.608 235.652,77.211 235.407 C 76.885 235.205,76.755 235.266,76.858 235.574 C 76.947 235.841,77.196 236.091,77.410 236.130 C 77.972 236.231,78.127 234.549,77.633 233.712 C 77.308 233.160,77.271 233.306,77.469 234.362 M76.267 238.267 C 75.820 238.713,75.967 239.067,76.600 239.067 C 76.930 239.067,77.200 238.827,77.200 238.533 C 77.200 237.966,76.708 237.825,76.267 238.267 M76.832 243.924 C 76.813 244.233,76.596 244.324,76.300 244.147 C 75.999 243.966,76.033 244.133,76.385 244.567 C 76.984 245.304,77.448 244.848,77.065 243.900 C 76.910 243.515,76.856 243.521,76.832 243.924 M77.304 248.618 C 76.966 248.986,76.943 249.241,77.231 249.419 C 77.782 249.759,78.106 249.415,77.935 248.671 C 77.822 248.176,77.719 248.167,77.304 248.618 M7.372 251.728 C 7.048 252.573,7.251 252.863,7.890 252.468 C 8.188 252.284,8.228 251.968,8.000 251.601 C 7.700 251.115,7.600 251.135,7.372 251.728 M78.846 253.700 C 78.821 254.085,78.609 254.400,78.376 254.400 C 78.143 254.400,78.074 254.596,78.222 254.835 C 78.627 255.491,79.311 254.625,79.084 253.742 C 78.914 253.082,78.888 253.077,78.846 253.700 M8.432 255.924 C 8.414 256.212,8.220 256.336,8.000 256.200 C 7.780 256.064,7.600 256.223,7.600 256.553 C 7.600 256.883,7.781 257.265,8.003 257.402 C 8.485 257.700,8.961 256.638,8.669 255.913 C 8.504 255.502,8.457 255.505,8.432 255.924 M80.152 258.581 C 80.029 258.900,80.047 259.353,80.192 259.587 C 80.509 260.099,81.202 259.745,81.194 259.076 C 81.190 258.782,81.024 258.830,80.759 259.200 C 80.415 259.682,80.369 259.623,80.528 258.900 C 80.748 257.895,80.497 257.682,80.152 258.581 M8.800 261.924 C 8.800 262.139,9.085 262.424,9.433 262.557 C 9.823 262.707,10.006 262.618,9.908 262.325 C 9.709 261.727,8.800 261.398,8.800 261.924 M8.892 264.475 C 9.139 265.217,10.000 265.340,10.000 264.633 C 10.000 264.285,9.715 264.000,9.367 264.000 C 9.018 264.000,8.805 264.214,8.892 264.475 M18.230 289.548 C 19.095 290.389,19.415 290.338,19.062 289.417 C 18.932 289.078,18.518 288.800,18.143 288.800 C 17.530 288.800,17.539 288.877,18.230 289.548 M22.000 296.691 C 22.000 297.688,22.617 298.219,23.020 297.568 C 23.171 297.323,23.003 296.832,22.647 296.476 C 22.051 295.879,22.000 295.896,22.000 296.691 M24.600 301.600 C 24.736 301.820,25.107 302.000,25.424 302.000 C 25.741 302.000,26.000 302.210,26.000 302.467 C 26.000 302.723,26.135 302.799,26.299 302.634 C 26.464 302.469,26.250 302.079,25.823 301.767 C 24.925 301.111,24.240 301.017,24.600 301.600 M26.604 303.593 C 26.309 304.071,26.683 304.800,27.224 304.800 C 27.710 304.800,27.713 303.717,27.228 303.417 C 27.023 303.291,26.742 303.370,26.604 303.593 M45.477 324.543 C 45.344 324.890,45.419 325.288,45.644 325.427 C 46.267 325.812,46.519 325.342,46.096 324.586 C 45.759 323.984,45.693 323.980,45.477 324.543 " stroke="none" fill="#ec4334" fill-rule="evenodd"></path><path id="path4" d="M280.280 174.530 C 280.433 175.234,280.388 175.286,280.041 174.800 C 279.776 174.430,279.610 174.382,279.606 174.676 C 279.595 175.529,280.349 175.642,280.773 174.851 C 281.082 174.274,281.048 174.027,280.638 173.870 C 280.249 173.720,280.145 173.911,280.280 174.530 M280.400 179.753 C 280.400 180.083,280.580 180.464,280.800 180.600 C 281.020 180.736,281.200 180.577,281.200 180.247 C 281.200 179.917,281.020 179.536,280.800 179.400 C 280.580 179.264,280.400 179.423,280.400 179.753 M382.566 195.237 C 382.727 195.767,382.875 196.408,382.896 196.662 C 382.916 196.916,383.162 197.036,383.441 196.929 C 384.001 196.714,383.742 195.600,383.134 195.600 C 382.924 195.600,382.856 195.432,382.983 195.228 C 383.109 195.023,383.002 194.725,382.744 194.565 C 382.407 194.357,382.357 194.548,382.566 195.237 M392.950 241.400 C 392.951 243.820,393.016 244.758,393.096 243.485 C 393.176 242.212,393.175 240.232,393.094 239.085 C 393.014 237.938,392.949 238.980,392.950 241.400 M306.080 274.480 C 305.458 275.102,305.470 275.467,306.114 275.467 C 306.397 275.467,306.629 275.137,306.629 274.733 C 306.629 273.864,306.675 273.885,306.080 274.480 M200.006 316.900 C 200.010 339.063,200.148 350.790,200.400 350.400 C 200.940 349.564,200.940 282.800,200.400 282.800 C 200.136 282.800,200.002 294.429,200.006 316.900 M346.800 330.400 C 346.462 331.032,346.496 331.200,346.961 331.200 C 347.304 331.200,347.525 330.865,347.490 330.400 C 347.457 329.960,347.384 329.600,347.329 329.600 C 347.274 329.600,347.035 329.960,346.800 330.400 M342.184 333.362 C 341.465 333.888,341.485 333.911,342.503 333.716 C 343.101 333.602,343.492 333.349,343.372 333.154 C 343.090 332.699,343.091 332.699,342.184 333.362 " stroke="none" fill="#428eef" fill-rule="evenodd"></path></g></svg>